<?xml version="1.0" encoding="UTF-8"?>
<svg width="934px" height="247px" viewBox="0 0 934 247" version="1.1" xmlns="http://www.w3.org/2000/svg" xmlns:xlink="http://www.w3.org/1999/xlink">
    <title>iQueue Logo</title>
    <g id="Symbols" stroke="none" stroke-width="1" fill="none" fillRule="evenodd">
        <g id="iQueue-Logo" fill="#000000" fillRule="nonzero">
            <g>
                <g id="Group-2" transform="translate(296.850000, 7.420000)">
                    <g id="Slogan" transform="translate(0.938000, 192.580000)">
                        <path d="M7.60401722,44.4682927 L7.60401722,29.8685796 L13.8088953,23.7245337 L28.0436155,44.4682927 L37.533429,44.4682927 L18.979627,18.3713056 L36.3167862,1.03414634 L26.948637,1.03414634 L7.60401722,20.8045911 L7.60401722,1.03414634 L0,1.03414634 L0,44.4682927 L7.60401722,44.4682927 Z M48.604878,44.4682927 L48.604878,12.5314204 L48.7873745,12.5314204 L68.5578192,44.4682927 L76.5876614,44.4682927 L76.5876614,1.03414634 L69.348637,1.03414634 L69.348637,33.0318508 L69.2269727,33.0318508 L49.3956958,1.03414634 L41.3658537,1.03414634 L41.3658537,44.4682927 L48.604878,44.4682927 Z M104.083788,45.502439 C107.328168,45.502439 110.237972,44.9042563 112.813199,43.707891 C115.388427,42.5115256 117.568245,40.8791966 119.352654,38.8109039 C121.137064,36.7426112 122.505787,34.3296031 123.458824,31.5718795 C124.41186,28.8141559 124.888379,25.8739359 124.888379,22.7512195 C124.888379,19.6690579 124.41186,16.7491153 123.458824,13.9913917 C122.505787,11.2336681 121.137064,8.82065997 119.352654,6.75236729 C117.568245,4.68407461 115.388427,3.04160689 112.813199,1.82496413 C110.237972,0.608321377 107.328168,3.23296945e-13 104.083788,3.23296945e-13 C100.839407,3.23296945e-13 97.9296031,0.608321377 95.3543759,1.82496413 C92.7791487,3.04160689 90.5993305,4.68407461 88.8149211,6.75236729 C87.0305117,8.82065997 85.6617886,11.2336681 84.7087518,13.9913917 C83.755715,16.7491153 83.2791966,19.6690579 83.2791966,22.7512195 C83.2791966,25.8739359 83.755715,28.8141559 84.7087518,31.5718795 C85.6617886,34.3296031 87.0305117,36.7426112 88.8149211,38.8109039 C90.5993305,40.8791966 92.7791487,42.5115256 95.3543759,43.707891 C97.9296031,44.9042563 100.839407,45.502439 104.083788,45.502439 Z M104.083788,39.297561 C101.772166,39.297561 99.7748446,38.8311813 98.0918221,37.8984218 C96.4087996,36.9656624 95.0400765,35.7186035 93.9856528,34.1572453 C92.9312291,32.5958871 92.15055,30.8216165 91.6436155,28.8344333 C91.136681,26.8472501 90.8832138,24.8195122 90.8832138,22.7512195 C90.8832138,20.6829268 91.136681,18.6551889 91.6436155,16.6680057 C92.15055,14.6808226 92.9312291,12.9065519 93.9856528,11.3451937 C95.0400765,9.78383549 96.4087996,8.53677666 98.0918221,7.60401722 C99.7748446,6.67125777 101.772166,6.20487805 104.083788,6.20487805 C106.395409,6.20487805 108.392731,6.67125777 110.075753,7.60401722 C111.758776,8.53677666 113.127499,9.78383549 114.181923,11.3451937 C115.236346,12.9065519 116.017025,14.6808226 116.52396,16.6680057 C117.030894,18.6551889 117.284362,20.6829268 117.284362,22.7512195 C117.284362,24.8195122 117.030894,26.8472501 116.52396,28.8344333 C116.017025,30.8216165 115.236346,32.5958871 114.181923,34.1572453 C113.127499,35.7186035 111.758776,36.9656624 110.075753,37.8984218 C108.392731,38.8311813 106.395409,39.297561 104.083788,39.297561 Z M146.84878,44.4682927 L155.730273,11.2539455 L155.851937,11.2539455 L164.550933,44.4682927 L172.276614,44.4682927 L184.260545,1.03414634 L176.534864,1.03414634 L168.444189,34.2484935 L168.322525,34.2484935 L159.806026,1.03414634 L152.019512,1.03414634 L143.259684,34.2484935 L143.13802,34.2484935 L135.290674,1.03414634 L127.564993,1.03414634 L139.001435,44.4682927 L146.84878,44.4682927 Z M204.760976,45.502439 C206.910378,45.502439 209.019225,45.2489718 211.087518,44.7420373 C213.155811,44.2351028 215.001052,43.4341463 216.623242,42.3391679 C218.245433,41.2441894 219.553324,39.8349115 220.546915,38.1113343 C221.540507,36.3877571 222.037303,34.3093257 222.037303,31.8760402 C222.037303,30.7405069 221.864945,29.6049737 221.52023,28.4694405 C221.175514,27.3339072 220.648302,26.2693448 219.938594,25.2757532 C219.228886,24.2821616 218.34682,23.4000956 217.292396,22.6295552 C216.237972,21.8590148 215.001052,21.2506934 213.581636,20.8045911 C213.013869,20.6423721 212.070971,20.3889048 210.752941,20.0441894 C209.434912,19.6994739 208.086466,19.3446198 206.707604,18.979627 C205.328742,18.6146341 204.081683,18.2800574 202.966428,17.9758967 C201.851172,17.671736 201.212434,17.4993783 201.050215,17.4588235 C199.509134,17.0127212 198.262076,16.3537064 197.309039,15.4817791 C196.356002,14.6098517 195.879484,13.4033477 195.879484,11.8622669 C195.879484,10.7672884 196.132951,9.85480631 196.639885,9.12482066 C197.14682,8.39483501 197.785557,7.8169297 198.556098,7.39110473 C199.326638,6.96527977 200.178288,6.66111908 201.111047,6.47862267 C202.043807,6.29612626 202.956289,6.20487805 203.848494,6.20487805 C206.484553,6.20487805 208.654232,6.78278336 210.357532,7.93859397 C212.060832,9.09440459 213.013869,11.0714491 213.216643,13.8697274 L213.216643,13.8697274 L220.82066,13.8697274 C220.82066,11.5986609 220.374558,9.60133907 219.482353,7.87776184 C218.590148,6.1541846 217.383644,4.70435198 215.862841,3.52826399 C214.342037,2.35217599 212.577905,1.47011 210.570445,0.882065997 C208.562984,0.294021999 206.423721,3.23296945e-13 204.152654,3.23296945e-13 C202.206026,3.23296945e-13 200.279675,0.253467241 198.373601,0.760401722 C196.467527,1.2673362 194.764228,2.0480153 193.263702,3.10243902 C191.763176,4.15686275 190.556671,5.48503109 189.644189,7.08694405 C188.731707,8.68885701 188.275466,10.584792 188.275466,12.7747489 C188.275466,13.9102822 188.427547,15.025538 188.731707,16.1205165 C189.035868,17.215495 189.552941,18.2496413 190.282927,19.2229555 C191.012912,20.1962697 191.996365,21.0783357 193.233286,21.8691535 C194.470206,22.6599713 196.021425,23.2987088 197.886944,23.7853659 C200.887996,24.596461 203.41253,25.2554758 205.460545,25.7624103 C207.50856,26.2693448 209.303109,26.8066954 210.844189,27.374462 C211.736394,27.6989 212.557628,28.256528 213.307891,29.0473458 C214.058154,29.8381636 214.433286,31.064945 214.433286,32.7276901 C214.433286,33.5387853 214.271066,34.3397418 213.946628,35.1305595 C213.62219,35.9213773 213.094978,36.6209469 212.364993,37.2292683 C211.635007,37.8375897 210.68197,38.3343855 209.505882,38.7196557 C208.329794,39.1049259 206.910378,39.297561 205.247633,39.297561 C203.706552,39.297561 202.276997,39.1252033 200.958967,38.7804878 C199.640937,38.4357724 198.474988,37.8882831 197.461119,37.1380201 C196.44725,36.3877571 195.656432,35.4245815 195.088666,34.2484935 C194.520899,33.0724055 194.237016,31.652989 194.237016,29.9902439 L194.237016,29.9902439 L186.632999,29.9902439 C186.673553,32.666858 187.180488,34.9886179 188.153802,36.9555237 C189.127116,38.9224295 190.424868,40.5344811 192.047059,41.7916786 C193.669249,43.0488761 195.575323,43.9816356 197.76528,44.589957 C199.955237,45.1982783 202.287135,45.502439 204.760976,45.502439 Z M260.604878,44.4682927 L269.48637,11.2539455 L269.608034,11.2539455 L278.30703,44.4682927 L286.032712,44.4682927 L298.016643,1.03414634 L290.290961,1.03414634 L282.200287,34.2484935 L282.078623,34.2484935 L273.562123,1.03414634 L265.77561,1.03414634 L257.015782,34.2484935 L256.894118,34.2484935 L249.046772,1.03414634 L241.32109,1.03414634 L252.757532,44.4682927 L260.604878,44.4682927 Z M310.426399,44.4682927 L310.426399,24.8803443 L330.196844,24.8803443 L330.196844,44.4682927 L337.800861,44.4682927 L337.800861,1.03414634 L330.196844,1.03414634 L330.196844,18.3104735 L310.426399,18.3104735 L310.426399,1.03414634 L302.822382,1.03414634 L302.822382,44.4682927 L310.426399,44.4682927 Z M365.418651,45.502439 C368.663032,45.502439 371.572836,44.9042563 374.148063,43.707891 C376.72329,42.5115256 378.903109,40.8791966 380.687518,38.8109039 C382.471927,36.7426112 383.84065,34.3296031 384.793687,31.5718795 C385.746724,28.8141559 386.223242,25.8739359 386.223242,22.7512195 C386.223242,19.6690579 385.746724,16.7491153 384.793687,13.9913917 C383.84065,11.2336681 382.471927,8.82065997 380.687518,6.75236729 C378.903109,4.68407461 376.72329,3.04160689 374.148063,1.82496413 C371.572836,0.608321377 368.663032,3.23296945e-13 365.418651,3.23296945e-13 C362.174271,3.23296945e-13 359.264467,0.608321377 356.68924,1.82496413 C354.114012,3.04160689 351.934194,4.68407461 350.149785,6.75236729 C348.365375,8.82065997 346.996652,11.2336681 346.043615,13.9913917 C345.090579,16.7491153 344.61406,19.6690579 344.61406,22.7512195 C344.61406,25.8739359 345.090579,28.8141559 346.043615,31.5718795 C346.996652,34.3296031 348.365375,36.7426112 350.149785,38.8109039 C351.934194,40.8791966 354.114012,42.5115256 356.68924,43.707891 C359.264467,44.9042563 362.174271,45.502439 365.418651,45.502439 Z M365.418651,39.297561 C363.10703,39.297561 361.109708,38.8311813 359.426686,37.8984218 C357.743663,36.9656624 356.37494,35.7186035 355.320516,34.1572453 C354.266093,32.5958871 353.485414,30.8216165 352.978479,28.8344333 C352.471545,26.8472501 352.218077,24.8195122 352.218077,22.7512195 C352.218077,20.6829268 352.471545,18.6551889 352.978479,16.6680057 C353.485414,14.6808226 354.266093,12.9065519 355.320516,11.3451937 C356.37494,9.78383549 357.743663,8.53677666 359.426686,7.60401722 C361.109708,6.67125777 363.10703,6.20487805 365.418651,6.20487805 C367.730273,6.20487805 369.727594,6.67125777 371.410617,7.60401722 C373.093639,8.53677666 374.462363,9.78383549 375.516786,11.3451937 C376.57121,12.9065519 377.351889,14.6808226 377.858824,16.6680057 C378.365758,18.6551889 378.619225,20.6829268 378.619225,22.7512195 C378.619225,24.8195122 378.365758,26.8472501 377.858824,28.8344333 C377.351889,30.8216165 376.57121,32.5958871 375.516786,34.1572453 C374.462363,35.7186035 373.093639,36.9656624 371.410617,37.8984218 C369.727594,38.8311813 367.730273,39.297561 365.418651,39.297561 Z M417.673458,44.4682927 L417.673458,1.03414634 L410.06944,1.03414634 L410.06944,44.4682927 L417.673458,44.4682927 Z M442.49297,45.502439 C444.642372,45.502439 446.75122,45.2489718 448.819512,44.7420373 C450.887805,44.2351028 452.733046,43.4341463 454.355237,42.3391679 C455.977427,41.2441894 457.285318,39.8349115 458.27891,38.1113343 C459.272501,36.3877571 459.769297,34.3093257 459.769297,31.8760402 C459.769297,30.7405069 459.596939,29.6049737 459.252224,28.4694405 C458.907508,27.3339072 458.380297,26.2693448 457.670588,25.2757532 C456.96088,24.2821616 456.078814,23.4000956 455.02439,22.6295552 C453.969967,21.8590148 452.733046,21.2506934 451.31363,20.8045911 C450.745863,20.6423721 449.802965,20.3889048 448.484935,20.0441894 C447.166906,19.6994739 445.81846,19.3446198 444.439598,18.979627 C443.060736,18.6146341 441.813678,18.2800574 440.698422,17.9758967 C439.583166,17.671736 438.944429,17.4993783 438.782209,17.4588235 C437.241129,17.0127212 435.99407,16.3537064 435.041033,15.4817791 C434.087996,14.6098517 433.611478,13.4033477 433.611478,11.8622669 C433.611478,10.7672884 433.864945,9.85480631 434.371879,9.12482066 C434.878814,8.39483501 435.517551,7.8169297 436.288092,7.39110473 C437.058632,6.96527977 437.910282,6.66111908 438.843042,6.47862267 C439.775801,6.29612626 440.688283,6.20487805 441.580488,6.20487805 C444.216547,6.20487805 446.386227,6.78278336 448.089527,7.93859397 C449.792826,9.09440459 450.745863,11.0714491 450.948637,13.8697274 L450.948637,13.8697274 L458.552654,13.8697274 C458.552654,11.5986609 458.106552,9.60133907 457.214347,7.87776184 C456.322143,6.1541846 455.115638,4.70435198 453.594835,3.52826399 C452.074032,2.35217599 450.3099,1.47011 448.302439,0.882065997 C446.294978,0.294021999 444.155715,3.23296945e-13 441.884648,3.23296945e-13 C439.93802,3.23296945e-13 438.011669,0.253467241 436.105595,0.760401722 C434.199522,1.2673362 432.496222,2.0480153 430.995696,3.10243902 C429.49517,4.15686275 428.288666,5.48503109 427.376184,7.08694405 C426.463702,8.68885701 426.007461,10.584792 426.007461,12.7747489 C426.007461,13.9102822 426.159541,15.025538 426.463702,16.1205165 C426.767862,17.215495 427.284935,18.2496413 428.014921,19.2229555 C428.744907,20.1962697 429.72836,21.0783357 430.96528,21.8691535 C432.2022,22.6599713 433.753419,23.2987088 435.618938,23.7853659 C438.61999,24.596461 441.144524,25.2554758 443.192539,25.7624103 C445.240555,26.2693448 447.035103,26.8066954 448.576184,27.374462 C449.468388,27.6989 450.289622,28.256528 451.039885,29.0473458 C451.790148,29.8381636 452.16528,31.064945 452.16528,32.7276901 C452.16528,33.5387853 452.003061,34.3397418 451.678623,35.1305595 C451.354185,35.9213773 450.826973,36.6209469 450.096987,37.2292683 C449.367001,37.8375897 448.413965,38.3343855 447.237877,38.7196557 C446.061789,39.1049259 444.642372,39.297561 442.979627,39.297561 C441.438546,39.297561 440.008991,39.1252033 438.690961,38.7804878 C437.372932,38.4357724 436.206982,37.8882831 435.193113,37.1380201 C434.179244,36.3877571 433.388427,35.4245815 432.82066,34.2484935 C432.252893,33.0724055 431.96901,31.652989 431.96901,29.9902439 L431.96901,29.9902439 L424.364993,29.9902439 C424.405548,32.666858 424.912482,34.9886179 425.885796,36.9555237 C426.85911,38.9224295 428.156863,40.5344811 429.779053,41.7916786 C431.401243,43.0488761 433.307317,43.9816356 435.497274,44.589957 C437.687231,45.1982783 440.01913,45.502439 442.49297,45.502439 Z M490.246198,44.4682927 L490.246198,12.5314204 L490.428694,12.5314204 L510.199139,44.4682927 L518.228981,44.4682927 L518.228981,1.03414634 L510.989957,1.03414634 L510.989957,33.0318508 L510.868293,33.0318508 L491.037016,1.03414634 L483.007174,1.03414634 L483.007174,44.4682927 L490.246198,44.4682927 Z M558.925681,44.4682927 L558.925681,37.8984218 L534.836155,37.8984218 L534.836155,25.184505 L556.735725,25.184505 L556.735725,18.979627 L534.836155,18.979627 L534.836155,7.60401722 L558.499857,7.60401722 L558.499857,1.03414634 L527.232138,1.03414634 L527.232138,44.4682927 L558.925681,44.4682927 Z M569.449641,44.4682927 L580.460258,27.8611191 L591.288379,44.4682927 L600.534864,44.4682927 L585.144333,21.9604017 L599.500717,1.03414634 L590.984218,1.03414634 L580.703587,16.3638451 L570.84878,1.03414634 L561.784792,1.03414634 L576.141176,21.9604017 L560.750646,44.4682927 L569.449641,44.4682927 Z M622.191105,44.4682927 L622.191105,7.60401722 L636,7.60401722 L636,1.03414634 L600.839024,1.03414634 L600.839024,7.60401722 L614.587088,7.60401722 L614.587088,44.4682927 L622.191105,44.4682927 Z"></path>
                    </g>
                    <g id="iQueue" transform="translate(1.150000, 0.580000)">
                        <path d="M22.8123649,25.1256281 L22.8123649,3.41708543 L0,3.41708543 L0,25.1256281 L22.8123649,25.1256281 Z M22.8123649,146.934673 L22.8123649,43.0150754 L0,43.0150754 L0,146.934673 L22.8123649,146.934673 Z M166.090025,160 L178.296641,146.331658 L159.886663,130.251256 C163.488615,126.901173 166.556945,123.048576 169.091652,118.693467 C171.626359,114.338358 173.694147,109.748744 175.295014,104.924623 C176.895882,100.100503 178.096533,95.1758794 178.896967,90.1507538 C179.697401,85.1256281 180.097617,80.1340034 180.097617,75.1758794 C180.097617,64.9916248 178.530101,55.3433836 175.395069,46.2311558 C172.260036,37.118928 167.757596,29.1457286 161.887747,22.3115578 C156.017899,15.4773869 148.847346,10.0502513 140.376087,6.03015075 C131.904829,2.01005025 122.332974,0 111.660523,0 C100.988071,0 91.4162166,2.01005025 82.9449583,6.03015075 C74.4737,10.0502513 67.3031467,15.4773869 61.4332984,22.3115578 C55.5634501,29.1457286 51.0610097,37.118928 47.9259771,46.2311558 C44.7909445,55.3433836 43.2234282,64.9916248 43.2234282,75.1758794 C43.2234282,85.4941374 44.7909445,95.2093802 47.9259771,104.321608 C51.0610097,113.433836 55.5634501,121.407035 61.4332984,128.241206 C67.3031467,135.075377 74.4737,140.469012 82.9449583,144.422111 C91.4162166,148.375209 100.988071,150.351759 111.660523,150.351759 C117.26356,150.351759 122.9333,149.681742 128.669742,148.341709 C134.406185,147.001675 139.942519,144.79062 145.278745,141.708543 L145.278745,141.708543 L166.090025,160 Z M111.660523,129.849246 C104.056401,129.849246 97.4861733,128.308208 91.9498391,125.226131 C86.413505,122.144054 81.9110645,118.023451 78.4425178,112.864322 C74.9739711,107.705193 72.4059125,101.842546 70.738342,95.2763819 C69.0707714,88.7102178 68.2369862,82.0100503 68.2369862,75.1758794 C68.2369862,68.3417085 69.0707714,61.641541 70.738342,55.0753769 C72.4059125,48.5092127 74.9739711,42.6465662 78.4425178,37.4874372 C81.9110645,32.3283082 86.413505,28.2077052 91.9498391,25.1256281 C97.4861733,22.0435511 104.056401,20.5025126 111.660523,20.5025126 C119.264644,20.5025126 125.834872,22.0435511 131.371207,25.1256281 C136.907541,28.2077052 141.409981,32.3283082 144.878528,37.4874372 C148.347075,42.6465662 150.915133,48.5092127 152.582704,55.0753769 C154.250274,61.641541 155.084059,68.3417085 155.084059,75.1758794 C155.084059,82.4120603 154.15022,89.5142379 152.282541,96.4824121 C150.414862,103.450586 147.213127,109.681742 142.677335,115.175879 L142.677335,115.175879 L125.267898,99.8994975 L113.261391,113.768844 L127.6692,126.432161 C125.134493,127.638191 122.499731,128.509213 119.764916,129.045226 C117.0301,129.58124 114.328636,129.849246 111.660523,129.849246 Z M238.32918,149.748744 C244.065623,149.748744 249.702011,148.174204 255.238346,145.025126 C260.77468,141.876047 264.943606,137.688442 267.745125,132.462312 L267.745125,132.462312 L268.145342,132.462312 L268.145342,146.934673 L290.55749,146.934673 L290.55749,43.0150754 L267.745125,43.0150754 L267.745125,103.316583 C267.745125,107.336683 267.311556,111.088777 266.44442,114.572864 C265.577283,118.056951 264.143172,121.038526 262.142088,123.517588 C260.141003,125.99665 257.539593,127.973199 254.337858,129.447236 C251.136122,130.921273 247.133953,131.658291 242.33135,131.658291 C236.061285,131.658291 231.191979,129.782245 227.723432,126.030151 C224.254885,122.278057 222.520612,115.845896 222.520612,106.733668 L222.520612,106.733668 L222.520612,43.0150754 L199.708247,43.0150754 L199.708247,108.944724 C199.708247,122.613065 202.743225,132.830821 208.813182,139.59799 C214.883139,146.365159 224.721805,149.748744 238.32918,149.748744 Z M360.195235,149.748744 C365.798272,149.748744 371.167849,148.978224 376.303966,147.437186 C381.440083,145.896147 386.07593,143.61809 390.211504,140.603015 C394.347079,137.58794 397.882329,133.869347 400.817253,129.447236 C403.752177,125.025126 405.819965,120 407.020615,114.371859 L407.020615,114.371859 L385.408901,114.371859 C383.407817,120.134003 380.372838,124.455611 376.303966,127.336683 C372.235094,130.217755 366.865517,131.658291 360.195235,131.658291 C355.392632,131.658291 351.257057,130.820771 347.78851,129.145729 C344.319963,127.470687 341.451742,125.226131 339.183846,122.41206 C336.91595,119.59799 335.215028,116.314908 334.08108,112.562814 C332.947132,108.81072 332.380158,104.924623 332.380158,100.904523 L332.380158,100.904523 L408.421375,100.904523 C409.355214,93.1323283 408.854943,85.5946399 406.920561,78.2914573 C404.986179,70.9882747 401.884498,64.5226131 397.615518,58.8944724 C393.346537,53.2663317 387.97696,48.7437186 381.506786,45.3266332 C375.036613,41.9095477 367.732654,40.201005 359.59491,40.201005 C351.857382,40.201005 344.920289,41.6750419 338.783629,44.6231156 C332.64697,47.5711893 327.410798,51.5577889 323.075115,56.5829146 C318.739431,61.6080402 315.40429,67.4371859 313.069692,74.0703518 C310.735093,80.7035176 309.567794,87.7051926 309.567794,95.0753769 C309.567794,103.115578 310.66839,110.485762 312.869583,117.18593 C315.070776,123.886097 318.339215,129.648241 322.674898,134.472362 C327.010581,139.296482 332.313456,143.048576 338.583521,145.728643 C344.853586,148.40871 352.057491,149.748744 360.195235,149.748744 Z M385.60901,85.8291457 L332.380158,85.8291457 C332.513564,81.9430486 333.280647,78.3249581 334.681406,74.9748744 C336.082165,71.6247906 337.949844,68.7102178 340.284443,66.2311558 C342.619042,63.7520938 345.42056,61.8090452 348.688998,60.4020101 C351.957436,58.9949749 355.59274,58.2914573 359.59491,58.2914573 C363.463673,58.2914573 366.965571,59.0619765 370.100604,60.6030151 C373.235636,62.1440536 375.903749,64.1541039 378.104942,66.6331658 C380.306136,69.1122278 382.040409,72.0268007 383.307762,75.3768844 C384.575116,78.7269682 385.342199,82.2110553 385.60901,85.8291457 L385.60901,85.8291457 Z M464.451745,149.748744 C470.188187,149.748744 475.824576,148.174204 481.36091,145.025126 C486.897244,141.876047 491.06617,137.688442 493.867689,132.462312 L493.867689,132.462312 L494.267906,132.462312 L494.267906,146.934673 L516.680054,146.934673 L516.680054,43.0150754 L493.867689,43.0150754 L493.867689,103.316583 C493.867689,107.336683 493.43412,111.088777 492.566984,114.572864 C491.699847,118.056951 490.265736,121.038526 488.264652,123.517588 C486.263567,125.99665 483.662157,127.973199 480.460422,129.447236 C477.258686,130.921273 473.256517,131.658291 468.453914,131.658291 C462.183849,131.658291 457.314543,129.782245 453.845996,126.030151 C450.377449,122.278057 448.643176,115.845896 448.643176,106.733668 L448.643176,106.733668 L448.643176,43.0150754 L425.830811,43.0150754 L425.830811,108.944724 C425.830811,122.613065 428.865789,132.830821 434.935746,139.59799 C441.005703,146.365159 450.844369,149.748744 464.451745,149.748744 Z M586.317799,149.748744 C591.920836,149.748744 597.290413,148.978224 602.42653,147.437186 C607.562648,145.896147 612.198494,143.61809 616.334069,140.603015 C620.469644,137.58794 624.004893,133.869347 626.939817,129.447236 C629.874741,125.025126 631.942529,120 633.14318,114.371859 L633.14318,114.371859 L611.531466,114.371859 C609.530381,120.134003 606.495403,124.455611 602.42653,127.336683 C598.357658,130.217755 592.988081,131.658291 586.317799,131.658291 C581.515196,131.658291 577.379621,130.820771 573.911074,129.145729 C570.442528,127.470687 567.574306,125.226131 565.30641,122.41206 C563.038514,119.59799 561.337592,116.314908 560.203645,112.562814 C559.069697,108.81072 558.502723,104.924623 558.502723,100.904523 L558.502723,100.904523 L634.543939,100.904523 C635.477778,93.1323283 634.977507,85.5946399 633.043125,78.2914573 C631.108744,70.9882747 628.007062,64.5226131 623.738082,58.8944724 C619.469101,53.2663317 614.099524,48.7437186 607.62935,45.3266332 C601.159177,41.9095477 593.855218,40.201005 585.717474,40.201005 C577.979946,40.201005 571.042853,41.6750419 564.906193,44.6231156 C558.769534,47.5711893 553.533362,51.5577889 549.197679,56.5829146 C544.861996,61.6080402 541.526855,67.4371859 539.192256,74.0703518 C536.857657,80.7035176 535.690358,87.7051926 535.690358,95.0753769 C535.690358,103.115578 536.790954,110.485762 538.992147,117.18593 C541.19334,123.886097 544.461779,129.648241 548.797462,134.472362 C553.133145,139.296482 558.43602,143.048576 564.706085,145.728643 C570.97615,148.40871 578.180055,149.748744 586.317799,149.748744 Z M611.731574,85.8291457 L558.502723,85.8291457 C558.636128,81.9430486 559.403211,78.3249581 560.80397,74.9748744 C562.204729,71.6247906 564.072408,68.7102178 566.407007,66.2311558 C568.741606,63.7520938 571.543124,61.8090452 574.811562,60.4020101 C578.080001,58.9949749 581.715304,58.2914573 585.717474,58.2914573 C589.586237,58.2914573 593.088135,59.0619765 596.223168,60.6030151 C599.358201,62.1440536 602.026313,64.1541039 604.227507,66.6331658 C606.4287,69.1122278 608.162973,72.0268007 609.430327,75.3768844 C610.69768,78.7269682 611.464763,82.2110553 611.731574,85.8291457 L611.731574,85.8291457 Z"></path>
                    </g>
                </g>
                <g id="logo">
                    <path d="M167.130285,204.679332 C197.307597,187.977535 217.729,155.896781 217.729,119.064 C217.729,65.0113719 173.750517,21.1930854 119.5,21.1930854 C65.2494831,21.1930854 21.271,65.0113719 21.271,119.064 C21.271,173.11601 65.2494831,216.934296 119.5,216.934296 C128.310714,216.934296 136.850489,215.778531 144.974937,213.610866 L140.202987,201.841146 L162.363564,192.922101 L167.130285,204.679332 Z M175.148784,224.457155 L180.266836,237.080955 L158.106881,246 L152.993418,233.387958 C142.366263,236.473519 131.127053,238.128 119.5,238.128 C53.5019813,238.128 0,184.820789 0,119.064 C0,53.306593 53.5019813,0 119.5,0 C185.498143,0 239,53.306593 239,119.064 C239,164.800585 213.116969,204.514336 175.148784,224.457155 Z" id="Combined-Shape"></path>
                    <polygon id="Path" points="124.825937 113.707386 140.830108 172.2 114.315736 124.169093 66.3032258 96.35"></polygon>
                </g>
            </g>
        </g>
    </g>
</svg>