<svg width="121" height="32" viewBox="0 0 121 32" fill="none" xmlns="http://www.w3.org/2000/svg">
<path d="M39.5364 31.8006V29.9015L40.3397 29.1022L42.1825 31.8006H43.4111L41.0091 28.4059L43.2536 26.1506H42.0408L39.5364 28.7224V26.1506H38.552V31.8006H39.5364ZM44.8444 31.8006V27.6462H44.868L47.4275 31.8006H48.4671V26.1506H47.5299V30.3129H47.5142L44.9468 26.1506H43.9072V31.8006H44.8444ZM52.0267 31.9351C52.4468 31.9351 52.8235 31.8573 53.1569 31.7017C53.4902 31.5461 53.7724 31.3337 54.0035 31.0647C54.2345 30.7956 54.4117 30.4818 54.535 30.123C54.6584 29.7643 54.7201 29.3818 54.7201 28.9756C54.7201 28.5747 54.6584 28.1949 54.535 27.8361C54.4117 27.4774 54.2345 27.1635 54.0035 26.8945C53.7724 26.6254 53.4902 26.4118 53.1569 26.2535C52.8235 26.0952 52.4468 26.0161 52.0267 26.0161C51.6067 26.0161 51.23 26.0952 50.8966 26.2535C50.5632 26.4118 50.281 26.6254 50.05 26.8945C49.819 27.1635 49.6418 27.4774 49.5184 27.8361C49.3951 28.1949 49.3334 28.5747 49.3334 28.9756C49.3334 29.3818 49.3951 29.7643 49.5184 30.123C49.6418 30.4818 49.819 30.7956 50.05 31.0647C50.281 31.3337 50.5632 31.5461 50.8966 31.7017C51.23 31.8573 51.6067 31.9351 52.0267 31.9351ZM52.0267 31.128C51.7275 31.128 51.4689 31.0673 51.251 30.946C51.0331 30.8247 50.8559 30.6624 50.7194 30.4593C50.5829 30.2562 50.4819 30.0254 50.4162 29.7669C50.3506 29.5084 50.3178 29.2447 50.3178 28.9756C50.3178 28.7066 50.3506 28.4428 50.4162 28.1843C50.4819 27.9258 50.5829 27.695 50.7194 27.4919C50.8559 27.2888 51.0331 27.1266 51.251 27.0053C51.4689 26.8839 51.7275 26.8233 52.0267 26.8233C52.326 26.8233 52.5846 26.8839 52.8025 27.0053C53.0204 27.1266 53.1975 27.2888 53.3341 27.4919C53.4706 27.695 53.5716 27.9258 53.6373 28.1843C53.7029 28.4428 53.7357 28.7066 53.7357 28.9756C53.7357 29.2447 53.7029 29.5084 53.6373 29.7669C53.5716 30.0254 53.4706 30.2562 53.3341 30.4593C53.1975 30.6624 53.0204 30.8247 52.8025 30.946C52.5846 31.0673 52.326 31.128 52.0267 31.128ZM57.5631 31.8006L58.7129 27.48H58.7287L59.8549 31.8006H60.855L62.4065 26.1506H61.4063L60.3589 30.4712H60.3431L59.2406 26.1506H58.2325L57.0985 30.4712H57.0827L56.0668 26.1506H55.0666L56.5472 31.8006H57.5631ZM65.0605 31.9351C65.3387 31.9351 65.6117 31.9022 65.8795 31.8362C66.1473 31.7703 66.3861 31.6661 66.5962 31.5236C66.8062 31.3812 66.9755 31.1979 67.1041 30.9737C67.2327 30.7495 67.2971 30.4791 67.2971 30.1626C67.2971 30.0149 67.2748 29.8672 67.2301 29.7195C67.1855 29.5717 67.1172 29.4333 67.0254 29.304C66.9335 29.1748 66.8193 29.06 66.6828 28.9598C66.5463 28.8596 66.3861 28.7804 66.2024 28.7224C66.1289 28.7013 66.0068 28.6683 65.8362 28.6235C65.6656 28.5786 65.491 28.5325 65.3125 28.485C65.134 28.4375 64.9725 28.394 64.8281 28.3544C64.6838 28.3149 64.6011 28.2925 64.5801 28.2872C64.3806 28.2292 64.2191 28.1434 64.0957 28.03C63.9724 27.9166 63.9107 27.7596 63.9107 27.5592C63.9107 27.4167 63.9435 27.298 64.0091 27.2031C64.0747 27.1081 64.1574 27.0329 64.2572 26.9776C64.3569 26.9222 64.4672 26.8826 64.5879 26.8589C64.7087 26.8351 64.8268 26.8233 64.9423 26.8233C65.2836 26.8233 65.5645 26.8984 65.785 27.0488C66.0055 27.1991 66.1289 27.4563 66.1551 27.8203H67.1396C67.1396 27.5249 67.0818 27.2651 66.9663 27.0409C66.8508 26.8167 66.6946 26.6281 66.4977 26.4751C66.3008 26.3221 66.0724 26.2073 65.8126 26.1309C65.5527 26.0544 65.2757 26.0161 64.9817 26.0161C64.7297 26.0161 64.4803 26.0491 64.2335 26.115C63.9868 26.181 63.7663 26.2825 63.572 26.4197C63.3778 26.5568 63.2216 26.7296 63.1034 26.938C62.9853 27.1464 62.9262 27.393 62.9262 27.6779C62.9262 27.8256 62.9459 27.9707 62.9853 28.1131C63.0247 28.2555 63.0916 28.3901 63.1861 28.5167C63.2806 28.6433 63.408 28.758 63.5681 28.8609C63.7282 28.9638 63.929 29.0468 64.1705 29.1101C64.5591 29.2157 64.8859 29.3014 65.151 29.3673C65.4162 29.4333 65.6485 29.5032 65.848 29.577C65.9635 29.6192 66.0698 29.6918 66.167 29.7946C66.2641 29.8975 66.3126 30.0571 66.3126 30.2734C66.3126 30.3789 66.2916 30.4831 66.2496 30.5859C66.2076 30.6888 66.1394 30.7798 66.0449 30.8589C65.9504 30.9381 65.827 31.0027 65.6747 31.0528C65.5225 31.1029 65.3387 31.128 65.1235 31.128C64.924 31.128 64.7389 31.1056 64.5683 31.0607C64.3976 31.0159 64.2467 30.9447 64.1154 30.8471C63.9842 30.7495 63.8818 30.6242 63.8083 30.4712C63.7348 30.3182 63.698 30.1336 63.698 29.9173H62.7136C62.7189 30.2655 62.7845 30.5675 62.9105 30.8233C63.0365 31.0792 63.2045 31.2889 63.4145 31.4524C63.6245 31.616 63.8713 31.7373 64.1548 31.8164C64.4383 31.8956 64.7402 31.9351 65.0605 31.9351ZM72.29 31.8006L73.4398 27.48H73.4556L74.5818 31.8006H75.5819L77.1334 26.1506H76.1332L75.0858 30.4712H75.07L73.9675 26.1506H72.9594L71.8254 30.4712H71.8096L70.7937 26.1506H69.7936L71.2741 31.8006H72.29ZM78.74 31.8006V29.2526H81.2995V31.8006H82.2839V26.1506H81.2995V28.398H78.74V26.1506H77.7555V31.8006H78.74ZM85.8593 31.9351C86.2793 31.9351 86.656 31.8573 86.9894 31.7017C87.3228 31.5461 87.605 31.3337 87.836 31.0647C88.067 30.7956 88.2442 30.4818 88.3676 30.123C88.491 29.7643 88.5527 29.3818 88.5527 28.9756C88.5527 28.5747 88.491 28.1949 88.3676 27.8361C88.2442 27.4774 88.067 27.1635 87.836 26.8945C87.605 26.6254 87.3228 26.4118 86.9894 26.2535C86.656 26.0952 86.2793 26.0161 85.8593 26.0161C85.4393 26.0161 85.0626 26.0952 84.7292 26.2535C84.3958 26.4118 84.1136 26.6254 83.8826 26.8945C83.6516 27.1635 83.4744 27.4774 83.351 27.8361C83.2276 28.1949 83.1659 28.5747 83.1659 28.9756C83.1659 29.3818 83.2276 29.7643 83.351 30.123C83.4744 30.4818 83.6516 30.7956 83.8826 31.0647C84.1136 31.3337 84.3958 31.5461 84.7292 31.7017C85.0626 31.8573 85.4393 31.9351 85.8593 31.9351ZM85.8593 31.128C85.56 31.128 85.3015 31.0673 85.0836 30.946C84.8657 30.8247 84.6885 30.6624 84.552 30.4593C84.4155 30.2562 84.3144 30.0254 84.2488 29.7669C84.1832 29.5084 84.1503 29.2447 84.1503 28.9756C84.1503 28.7066 84.1832 28.4428 84.2488 28.1843C84.3144 27.9258 84.4155 27.695 84.552 27.4919C84.6885 27.2888 84.8657 27.1266 85.0836 27.0053C85.3015 26.8839 85.56 26.8233 85.8593 26.8233C86.1586 26.8233 86.4171 26.8839 86.635 27.0053C86.8529 27.1266 87.0301 27.2888 87.1666 27.4919C87.3031 27.695 87.4042 27.9258 87.4698 28.1843C87.5354 28.4428 87.5682 28.7066 87.5682 28.9756C87.5682 29.2447 87.5354 29.5084 87.4698 29.7669C87.4042 30.0254 87.3031 30.2562 87.1666 30.4593C87.0301 30.6624 86.8529 30.8247 86.635 30.946C86.4171 31.0673 86.1586 31.128 85.8593 31.128ZM92.6242 31.8006V26.1506H91.6398V31.8006H92.6242ZM95.8374 31.9351C96.1156 31.9351 96.3886 31.9022 96.6564 31.8362C96.9242 31.7703 97.1631 31.6661 97.3731 31.5236C97.5831 31.3812 97.7524 31.1979 97.881 30.9737C98.0097 30.7495 98.074 30.4791 98.074 30.1626C98.074 30.0149 98.0517 29.8672 98.007 29.7195C97.9624 29.5717 97.8941 29.4333 97.8023 29.304C97.7104 29.1748 97.5962 29.06 97.4597 28.9598C97.3232 28.8596 97.1631 28.7804 96.9793 28.7224C96.9058 28.7013 96.7837 28.6683 96.6131 28.6235C96.4425 28.5786 96.2679 28.5325 96.0894 28.485C95.9109 28.4375 95.7494 28.394 95.605 28.3544C95.4607 28.3149 95.378 28.2925 95.357 28.2872C95.1575 28.2292 94.996 28.1434 94.8726 28.03C94.7493 27.9166 94.6876 27.7596 94.6876 27.5592C94.6876 27.4167 94.7204 27.298 94.786 27.2031C94.8516 27.1081 94.9343 27.0329 95.0341 26.9776C95.1338 26.9222 95.2441 26.8826 95.3648 26.8589C95.4856 26.8351 95.6037 26.8233 95.7192 26.8233C96.0605 26.8233 96.3414 26.8984 96.5619 27.0488C96.7824 27.1991 96.9058 27.4563 96.932 27.8203H97.9165C97.9165 27.5249 97.8587 27.2651 97.7432 27.0409C97.6277 26.8167 97.4715 26.6281 97.2746 26.4751C97.0777 26.3221 96.8493 26.2073 96.5895 26.1309C96.3296 26.0544 96.0526 26.0161 95.7586 26.0161C95.5066 26.0161 95.2572 26.0491 95.0105 26.115C94.7637 26.181 94.5432 26.2825 94.3489 26.4197C94.1547 26.5568 93.9985 26.7296 93.8803 26.938C93.7622 27.1464 93.7031 27.393 93.7031 27.6779C93.7031 27.8256 93.7228 27.9707 93.7622 28.1131C93.8016 28.2555 93.8685 28.3901 93.963 28.5167C94.0575 28.6433 94.1849 28.758 94.345 28.8609C94.5051 28.9638 94.7059 29.0468 94.9475 29.1101C95.336 29.2157 95.6628 29.3014 95.9279 29.3673C96.1931 29.4333 96.4254 29.5032 96.6249 29.577C96.7404 29.6192 96.8467 29.6918 96.9439 29.7946C97.041 29.8975 97.0896 30.0571 97.0896 30.2734C97.0896 30.3789 97.0686 30.4831 97.0265 30.5859C96.9845 30.6888 96.9163 30.7798 96.8218 30.8589C96.7273 30.9381 96.6039 31.0027 96.4516 31.0528C96.2994 31.1029 96.1156 31.128 95.9004 31.128C95.7009 31.128 95.5158 31.1056 95.3452 31.0607C95.1745 31.0159 95.0236 30.9447 94.8923 30.8471C94.7611 30.7495 94.6587 30.6242 94.5852 30.4712C94.5117 30.3182 94.4749 30.1336 94.4749 29.9173H93.4905C93.4958 30.2655 93.5614 30.5675 93.6874 30.8233C93.8134 31.0792 93.9814 31.2889 94.1914 31.4524C94.4014 31.616 94.6482 31.7373 94.9317 31.8164C95.2152 31.8956 95.5171 31.9351 95.8374 31.9351ZM102.02 31.8006V27.6462H102.043L104.603 31.8006H105.642V26.1506H104.705V30.3129H104.689L102.122 26.1506H101.082V31.8006H102.02ZM110.911 31.8006V30.946H107.792V29.2921H110.627V28.485H107.792V27.0053H110.856V26.1506H106.808V31.8006H110.911ZM112.273 31.8006L113.699 29.6403L115.101 31.8006H116.298L114.305 28.8728L116.164 26.1506H115.061L113.73 28.1447L112.454 26.1506H111.281L113.14 28.8728L111.147 31.8006H112.273ZM119.101 31.8006V27.0053H120.889V26.1506H116.337V27.0053H118.117V31.8006H119.101Z" fill="#14A800"/>
<path d="M41.5331 4.30915V1.48527H38.5798V4.30915H41.5331ZM41.5331 20.1542V6.63623H38.5798V20.1542H41.5331ZM60.0819 21.8538L61.6621 20.0758L59.2788 17.984C59.7451 17.5482 60.1423 17.0471 60.4705 16.4806C60.7986 15.9141 61.0663 15.317 61.2736 14.6895C61.4808 14.062 61.6362 13.4214 61.7399 12.7677C61.8435 12.114 61.8953 11.4647 61.8953 10.8197C61.8953 9.49497 61.6924 8.23991 61.2865 7.05458C60.8806 5.86925 60.2978 4.83209 59.5378 3.94309C58.7779 3.05409 57.8496 2.34812 56.7529 1.82518C55.6562 1.30224 54.4171 1.04077 53.0354 1.04077C51.6537 1.04077 50.4146 1.30224 49.3179 1.82518C48.2212 2.34812 47.2929 3.05409 46.533 3.94309C45.773 4.83209 45.1902 5.86925 44.7843 7.05458C44.3784 8.23991 44.1755 9.49497 44.1755 10.8197C44.1755 12.162 44.3784 13.4257 44.7843 14.6111C45.1902 15.7964 45.773 16.8336 46.533 17.7226C47.2929 18.6116 48.2212 19.3132 49.3179 19.8274C50.4146 20.3416 51.6537 20.5987 53.0354 20.5987C53.7608 20.5987 54.4948 20.5116 55.2374 20.3373C55.9801 20.1629 56.6968 19.8753 57.3876 19.4744L60.0819 21.8538ZM53.0354 17.9317C52.051 17.9317 51.2004 17.7313 50.4836 17.3303C49.7669 16.9294 49.184 16.3934 48.735 15.7223C48.2859 15.0512 47.9535 14.2886 47.7376 13.4344C47.5217 12.5803 47.4138 11.7087 47.4138 10.8197C47.4138 9.93075 47.5217 9.05918 47.7376 8.20505C47.9535 7.35091 48.2859 6.58829 48.735 5.91719C49.184 5.24608 49.7669 4.71007 50.4836 4.30915C51.2004 3.90823 52.051 3.70776 53.0354 3.70776C54.0198 3.70776 54.8704 3.90823 55.5872 4.30915C56.3039 4.71007 56.8868 5.24608 57.3358 5.91719C57.7849 6.58829 58.1173 7.35091 58.3332 8.20505C58.5491 9.05918 58.657 9.93075 58.657 10.8197C58.657 11.761 58.5361 12.6849 58.2943 13.5913C58.0526 14.4978 57.6381 15.3083 57.0509 16.023L54.797 14.0358L53.2427 15.84L55.1079 17.4872C54.7797 17.6441 54.4387 17.7574 54.0846 17.8271C53.7305 17.8969 53.3808 17.9317 53.0354 17.9317ZM69.434 20.5203C70.1766 20.5203 70.9063 20.3155 71.6231 19.9058C72.3398 19.4962 72.8795 18.9515 73.2422 18.2716H73.294V20.1542H76.1955V6.63623H73.2422V14.4803C73.2422 15.0033 73.1861 15.4913 73.0738 15.9446C72.9615 16.3978 72.7759 16.7856 72.5168 17.1081C72.2578 17.4306 71.921 17.6877 71.5065 17.8794C71.092 18.0712 70.5739 18.1671 69.9521 18.1671C69.1404 18.1671 68.51 17.923 68.061 17.4349C67.6119 16.9469 67.3874 16.1102 67.3874 14.9248V6.63623H64.4341V15.2124C64.4341 16.9904 64.827 18.3196 65.6128 19.1999C66.3987 20.0801 67.6724 20.5203 69.434 20.5203ZM85.2108 20.5203C85.9362 20.5203 86.6314 20.4201 87.2963 20.2196C87.9612 20.0191 88.5614 19.7228 89.0968 19.3306C89.6321 18.9384 90.0898 18.4547 90.4698 17.8794C90.8497 17.3042 91.1174 16.6505 91.2729 15.9184H88.475C88.2159 16.668 87.823 17.2301 87.2963 17.6049C86.7695 17.9797 86.0744 18.1671 85.2108 18.1671C84.5891 18.1671 84.0537 18.0581 83.6047 17.8402C83.1556 17.6223 82.7843 17.3303 82.4907 16.9643C82.1971 16.5982 81.9769 16.1712 81.8301 15.6831C81.6833 15.195 81.6099 14.6895 81.6099 14.1666H91.4542C91.5751 13.1555 91.5103 12.175 91.2599 11.225C91.0095 10.275 90.6079 9.43396 90.0553 8.70184C89.5026 7.96973 88.8075 7.38142 87.9698 6.93692C87.1322 6.49242 86.1866 6.27017 85.1331 6.27017C84.1314 6.27017 83.2333 6.46192 82.4389 6.8454C81.6444 7.22889 80.9665 7.74748 80.4052 8.40115C79.8439 9.05483 79.4122 9.81309 79.1099 10.6759C78.8077 11.5388 78.6566 12.4496 78.6566 13.4083C78.6566 14.4542 78.7991 15.4129 79.084 16.2845C79.369 17.156 79.7921 17.9056 80.3534 18.5331C80.9147 19.1606 81.6012 19.6487 82.413 19.9973C83.2247 20.346 84.1573 20.5203 85.2108 20.5203ZM88.5009 12.2055H81.6099C81.6272 11.7 81.7265 11.2294 81.9078 10.7936C82.0891 10.3578 82.3309 9.97869 82.6332 9.65621C82.9354 9.33373 83.2981 9.08097 83.7212 8.89794C84.1444 8.71491 84.615 8.6234 85.1331 8.6234C85.634 8.6234 86.0873 8.72363 86.4932 8.92409C86.8991 9.12455 87.2445 9.38602 87.5294 9.7085C87.8144 10.031 88.0389 10.4101 88.203 10.8459C88.3671 11.2817 88.4664 11.7349 88.5009 12.2055ZM98.7079 20.5203C99.4506 20.5203 100.18 20.3155 100.897 19.9058C101.614 19.4962 102.153 18.9515 102.516 18.2716H102.568V20.1542H105.469V6.63623H102.516V14.4803C102.516 15.0033 102.46 15.4913 102.348 15.9446C102.235 16.3978 102.05 16.7856 101.791 17.1081C101.532 17.4306 101.195 17.6877 100.78 17.8794C100.366 18.0712 99.8478 18.1671 99.2261 18.1671C98.4143 18.1671 97.784 17.923 97.3349 17.4349C96.8859 16.9469 96.6614 16.1102 96.6614 14.9248V6.63623H93.708V15.2124C93.708 16.9904 94.101 18.3196 94.8868 19.1999C95.6726 20.0801 96.9463 20.5203 98.7079 20.5203ZM114.485 20.5203C115.21 20.5203 115.905 20.4201 116.57 20.2196C117.235 20.0191 117.835 19.7228 118.371 19.3306C118.906 18.9384 119.364 18.4547 119.744 17.8794C120.124 17.3042 120.391 16.6505 120.547 15.9184H117.749C117.49 16.668 117.097 17.2301 116.57 17.6049C116.043 17.9797 115.348 18.1671 114.485 18.1671C113.863 18.1671 113.328 18.0581 112.879 17.8402C112.43 17.6223 112.058 17.3303 111.765 16.9643C111.471 16.5982 111.251 16.1712 111.104 15.6831C110.957 15.195 110.884 14.6895 110.884 14.1666H120.728C120.849 13.1555 120.784 12.175 120.534 11.225C120.283 10.275 119.882 9.43396 119.329 8.70184C118.777 7.96973 118.081 7.38142 117.244 6.93692C116.406 6.49242 115.461 6.27017 114.407 6.27017C113.405 6.27017 112.507 6.46192 111.713 6.8454C110.918 7.22889 110.24 7.74748 109.679 8.40115C109.118 9.05483 108.686 9.81309 108.384 10.6759C108.082 11.5388 107.931 12.4496 107.931 13.4083C107.931 14.4542 108.073 15.4129 108.358 16.2845C108.643 17.156 109.066 17.9056 109.627 18.5331C110.189 19.1606 110.875 19.6487 111.687 19.9973C112.499 20.346 113.431 20.5203 114.485 20.5203ZM117.775 12.2055H110.884C110.901 11.7 111 11.2294 111.182 10.7936C111.363 10.3578 111.605 9.97869 111.907 9.65621C112.209 9.33373 112.572 9.08097 112.995 8.89794C113.418 8.71491 113.889 8.6234 114.407 8.6234C114.908 8.6234 115.361 8.72363 115.767 8.92409C116.173 9.12455 116.518 9.38602 116.803 9.7085C117.088 10.031 117.313 10.4101 117.477 10.8459C117.641 11.2817 117.74 11.7349 117.775 12.2055Z" fill="#14A800"/>
<path d="M21.6368 26.625C25.5435 24.4524 28.1873 20.2793 28.1873 15.488C28.1873 8.45676 22.4938 2.75682 15.4705 2.75682C8.44723 2.75682 2.75375 8.45676 2.75375 15.488C2.75375 22.5192 8.44723 28.2191 15.4705 28.2191C16.6112 28.2191 17.7167 28.0688 18.7685 27.7868L18.1508 26.2558L21.0197 25.0956L21.6368 26.625ZM22.6749 29.1977L23.3374 30.8398L20.4686 32L19.8066 30.3594C18.4308 30.7608 16.9758 30.976 15.4705 30.976C6.92639 30.976 0 24.0417 0 15.488C0 6.93419 6.92639 0 15.4705 0C24.0147 0 30.9411 6.93419 30.9411 15.488C30.9411 21.4375 27.5902 26.6035 22.6749 29.1977Z" fill="#14A800"/>
<path d="M16.1601 14.7913L18.232 22.4001L14.7994 16.1522L8.58368 12.5334L16.1601 14.7913Z" fill="#14A800"/>
</svg>
